<?xml version="1.0" encoding="iso-8859-1"?>
<!-- Uploaded to: SVG Repo, www.svgrepo.com, Generator: SVG Repo Mixer Tools -->
<svg fill="#000000" height="800px" width="800px" version="1.1" id="Layer_1" xmlns="http://www.w3.org/2000/svg" xmlns:xlink="http://www.w3.org/1999/xlink" 
	 viewBox="0 0 496 496" xml:space="preserve">
<g>
	<g>
		<g>
			<path d="M432,184C432,82.544,349.456,0,248,0S64,82.544,64,184c0,67.776,36.656,129.24,96,161.568V352h-16v16h16v16h-16v16h16v16
				h-16v16h16v16h-16v16h16v32h176v-32h16v-16h-16v-16h16v-16h-16v-16h16v-16h-16v-16h16v-16h-16v-6.432
				C395.344,313.24,432,251.776,432,184z M320,480H176v-16h144V480z M320,448H176v-16h144V448z M320,416H176v-16h144V416z M320,384
				H176v-16h144V384z M324.352,333.632L320,335.856V352h-64v-56.4c27.64-1.944,53.232-13.784,72.704-34.056l-11.536-11.088
				C298.864,269.504,274.296,280,248,280c-26.296,0-50.864-10.496-69.168-29.544l-11.536,11.088
				c19.48,20.272,45.072,32.112,72.704,34.056V352h-64v-16.144l-4.352-2.224C115.12,304.72,80,247.384,80,184
				c0-92.64,75.36-168,168-168s168,75.36,168,168C416,247.384,380.88,304.72,324.352,333.632z"/>
			<polygon points="16,240 48,240 48,224 16,224 16,192 48,192 48,176 16,176 16,144 48,144 48,128 16,128 16,96 72,96 72,80 0,80 
				0,288 72,288 72,272 16,272 			"/>
			<polygon points="424,80 424,96 480,96 480,128 448,128 448,144 480,144 480,176 448,176 448,192 480,192 480,224 448,224 
				448,240 480,240 480,272 424,272 424,288 496,288 496,80 			"/>
			<path d="M144,144h16c8.824,0,16,7.176,16,16h16c0-17.648-14.352-32-32-32h-16c-17.648,0-32,14.352-32,32s14.352,32,32,32h16
				c8.824,0,16,7.176,16,16c0,8.824-7.176,16-16,16h-16c-8.824,0-16-7.176-16-16h-16c0,17.648,14.352,32,32,32h16
				c17.648,0,32-14.352,32-32s-14.352-32-32-32h-16c-8.824,0-16-7.176-16-16C128,151.176,135.176,144,144,144z"/>
			<polygon points="208,240 288,240 288,224 224,224 224,192 272,192 272,176 224,176 224,144 288,144 288,128 208,128 			"/>
			<path d="M384,200v-32c0-22.056-17.944-40-40-40c-22.056,0-40,17.944-40,40v32c0,22.056,17.944,40,40,40
				C366.056,240,384,222.056,384,200z M368,200c0,13.232-10.768,24-24,24s-24-10.768-24-24v-32c0-13.232,10.768-24,24-24
				s24,10.768,24,24V200z"/>
			<path d="M248,88c26.296,0,50.864,10.496,69.168,29.544l11.536-11.088C307.352,84.24,278.688,72,248,72
				s-59.352,12.24-80.704,34.456l11.536,11.088C197.136,98.496,221.704,88,248,88z"/>
		</g>
	</g>
</g>
</svg>